<svg width="31" height="42" viewBox="0 0 31 42" fill="none" xmlns="http://www.w3.org/2000/svg">
<g clip-path="url(#clip0_304_74)">
<path d="M15.5 0.5C23.7768 0.5 30.5 7.32006 30.5 15.75C30.5 17.3068 30.3662 18.558 29.9961 19.8281C29.6248 21.102 29.0085 22.4194 28.0146 24.0986C26.0145 27.4781 22.5605 32.2082 16.6797 40.8711C16.1084 41.7097 14.8906 41.7096 14.3193 40.8711C8.43872 32.2085 4.9855 27.478 2.98535 24.0986C1.99147 22.4194 1.37516 21.102 1.00391 19.8281C0.633758 18.558 0.5 17.3068 0.5 15.75C0.5 7.32006 7.22321 0.5 15.5 0.5Z" fill="url(#paint0_linear_304_74)" stroke="black"/>
<circle cx="15.6562" cy="15.3125" r="9.15625" stroke="#3D2E2D" stroke-width="3"/>
</g>
<defs>
<linearGradient id="paint0_linear_304_74" x1="9.5" y1="9" x2="33.0071" y2="50.996" gradientUnits="userSpaceOnUse">
<stop stop-color="#FF6B3D"/>
<stop offset="1" stop-color="white"/>
</linearGradient>
<clipPath id="clip0_304_74">
<rect width="31" height="42" fill="white"/>
</clipPath>
</defs>
</svg>
